<svg width="512" height="512" viewBox="0 0 512 512" fill="none" xmlns="http://www.w3.org/2000/svg" role="img" aria-labelledby="title desc">
  <title id="title">Logiclings mascot</title>
  <desc id="desc">A soft rounded logic creature shaped from an open code loop, with two node-like eyes and a small connector tail.</desc>
  <path d="M360 156C401 186 421 235 408 281C394 332 345 368 281 374C213 380 149 354 123 306C98 261 110 207 152 174C195 140 271 127 328 144C339 147 350 151 360 156Z" fill="#7C3AED"/>
  <path d="M354 159C395 191 411 237 399 279C385 325 339 358 280 364C218 370 159 347 134 304C111 263 122 215 161 185C201 154 273 141 325 157C335 160 345 163 354 159Z" fill="#A78BFA"/>
  <circle cx="207" cy="243" r="26" fill="#FAF9F7"/>
  <circle cx="306" cy="243" r="26" fill="#FAF9F7"/>
  <circle cx="215" cy="249" r="10.5" fill="#1F2430"/>
  <circle cx="297" cy="249" r="10.5" fill="#1F2430"/>
  <path d="M215 311C236 327 276 327 296 311" stroke="#1F2430" stroke-width="17" stroke-linecap="round"/>
  <path d="M140 200L102 236L140 272" stroke="#22D3EE" stroke-width="24" stroke-linecap="round" stroke-linejoin="round"/>
  <path d="M372 200L410 236L372 272" stroke="#22D3EE" stroke-width="24" stroke-linecap="round" stroke-linejoin="round"/>
  <path d="M338 354C368 374 389 399 401 429" stroke="#A78BFA" stroke-width="23" stroke-linecap="round"/>
  <circle cx="403" cy="437" r="17.5" fill="#22D3EE"/>
</svg>
